<svg width="148" height="25" viewBox="0 0 148 25" fill="none" xmlns="http://www.w3.org/2000/svg"><path d="M133.744 20.4779V4.66298H137.583V6.34345C138.737 5.50321 140.671 4.25808 142.864 4.25808C147.683 4.25808 148.001 7.18368 148.001 10.456V20.4779H144.191V10.89C144.191 8.48572 143.729 7.6177 141.623 7.6177C140.035 7.6177 138.535 8.34149 137.582 8.86283V20.4779H133.744ZM122.491 17.7257C125.55 17.7257 126.3 15.4378 126.3 12.5705C126.3 9.87641 125.55 7.32791 122.434 7.32791C119.374 7.32791 118.538 9.87641 118.538 12.5996C118.537 15.5252 119.488 17.7257 122.491 17.7257ZM122.288 20.8246C117.411 20.8246 114.669 17.7548 114.669 12.7147C114.669 7.38481 117.844 4.25675 122.518 4.25675C127.77 4.25675 130.194 7.3557 130.194 12.5691C130.196 18.0154 126.848 20.8246 122.288 20.8246ZM105.637 20.8246C103.415 20.8246 101.654 20.5348 100.327 20.159L100.789 17.1752C102.433 17.4359 104.05 17.6966 105.262 17.6966C107.716 17.6966 108.437 16.9436 108.437 16.0743C108.437 13.6409 100.5 14.5976 100.5 9.00706C100.5 5.82078 103.386 4.25675 106.676 4.25675C108.523 4.25675 110.197 4.63387 111.409 5.06788L110.774 7.93526C109.532 7.64548 108.35 7.3557 106.676 7.3557C104.916 7.3557 104.339 8.13771 104.339 8.80329C104.339 11.3227 112.217 10.628 112.217 15.8705C112.216 19.8401 108.262 20.8246 105.637 20.8246ZM91.3807 20.8246C89.1591 20.8246 87.3979 20.5348 86.0707 20.159L86.5325 17.1752C88.1773 17.4359 89.7929 17.6966 91.0063 17.6966C93.4595 17.6966 94.1806 16.9436 94.1806 16.0743C94.1806 13.6409 86.2441 14.5976 86.2441 9.00706C86.2441 5.82078 89.13 4.25675 92.4195 4.25675C94.2667 4.25675 95.9405 4.63387 97.1526 5.06788L96.5174 7.93526C95.2763 7.64548 94.0933 7.3557 92.4195 7.3557C90.6596 7.3557 90.0814 8.13771 90.0814 8.80329C90.0814 11.3227 97.9597 10.628 97.9597 15.8705C97.9597 19.8401 94.006 20.8246 91.3807 20.8246ZM73.4592 11.0646H79.6929C79.722 8.68949 78.7693 7.03813 76.8652 7.03813C74.9307 7.03813 73.6326 8.45793 73.4592 11.0646ZM77.6446 20.8246C72.6812 20.8246 69.5359 19.029 69.5359 12.8311C69.5359 6.37256 72.7976 4.28719 77.241 4.28719C81.8007 4.28719 83.6479 7.2988 83.6479 12.2516V13.6422H73.3746C73.3746 17.1183 75.5393 17.6966 78.3379 17.6966C79.4349 17.6966 81.3098 17.3194 82.6092 17.0588L83.2152 20.0426C81.9145 20.4488 79.808 20.8246 77.6446 20.8246ZM55.076 20.4779V1.90735e-06H59.0006V17.2916H67.8595V20.4779H55.076ZM41.0804 20.8246C36.3473 20.8246 36.002 17.8408 36.002 14.5976V4.66298H39.8406V14.1636C39.8406 16.4514 40.2164 17.4359 42.2938 17.4359C43.9385 17.4359 45.6415 16.5956 46.3918 16.1907V4.66298H50.2304V20.4766H46.3918V18.7683C45.3517 19.5212 43.3312 20.8246 41.0804 20.8246Z" fill="#1A3B5F"></path><mask id="mask0_2185_4167" maskUnits="userSpaceOnUse" x="0" y="0" width="28" height="25" style="mask-type: alpha;"><path fill-rule="evenodd" clip-rule="evenodd" d="M27.2466 0.794054H18.2078C16.2442 0.794054 14.5359 1.91746 13.6917 3.56088C12.8435 1.91746 11.1353 0.794054 9.17163 0.794054H0.132812V19.5148L0.172509 20.0798H9.20868C13.0592 20.0798 13.1254 23.8906 13.1254 24.0534H13.5792H14.2541C14.258 23.8906 14.3202 20.0798 18.2078 20.0798H27.2466V0.794054Z" fill="#213D5B"></path></mask><g mask="url(#mask0_2185_4167)"><path d="M27.1138 0.775349H0V24.036H27.1138V0.775349Z" fill="url(#paint0_linear_2185_4167)"></path></g><path d="M4.55327 8.97672C4.98331 9.54834 5.50333 10.0565 6.11333 10.4984C6.72333 10.9417 7.38625 11.3056 8.10475 11.5927C8.82193 11.8785 9.57881 12.0968 10.3754 12.2464C11.1719 12.3959 11.9712 12.4713 12.7757 12.4713H14.3688C15.172 12.4713 15.9725 12.3959 16.7691 12.2464C17.5657 12.0968 18.3225 11.8785 19.0397 11.5927C19.7569 11.3069 20.4212 10.9417 21.0298 10.4984C21.6398 10.0551 22.1598 9.54834 22.5899 8.97672L23.6445 9.74815C23.3004 10.4481 22.8162 11.1521 22.1916 11.86C21.567 12.5679 20.8247 13.203 19.9646 13.768C19.1032 14.3331 18.1347 14.7896 17.0589 15.1402C15.9831 15.4909 14.82 15.6655 13.5722 15.6655C12.3245 15.6655 11.1614 15.4909 10.0856 15.1402C9.00983 14.7896 8.04124 14.3331 7.17983 13.768C6.31843 13.203 5.57611 12.5679 4.95288 11.86C4.32833 11.1521 3.84403 10.4481 3.5 9.74815L4.55327 8.97672Z" fill="white"></path><defs><linearGradient id="paint0_linear_2185_4167" x1="13.557" y1="0.775375" x2="13.557" y2="24.0356" gradientUnits="userSpaceOnUse"><stop stop-color="#2CA1DA"></stop><stop offset="1" stop-color="#2B5CA9"></stop></linearGradient></defs></svg>